<svg width="687" height="504" viewBox="0 0 687 504" fill="none" xmlns="http://www.w3.org/2000/svg">
<path d="M283.011 388.594L277.99 420.547L287.576 452.5H328.201L358.328 435.154L367.914 407.31L358.328 381.747L341.439 370.792L335.505 358.011H325.462L316.333 370.792L299.9 377.183L283.011 388.594Z" fill="#FF54B0"/>
<path d="M391.194 342.034L398.498 398.18H428.168L512.158 404.114L597.518 410.505L639.513 414.613L686.53 434.698L672.836 442.458L656.403 434.698L617.603 431.046L556.892 442.458L476.554 446.566H369.74L372.935 404.114L363.806 379.921L349.655 368.51L343.721 352.533H323.637L309.03 365.771L277.99 384.486L271.599 419.634L275.251 442.458L212.258 449.305L107.727 442.458L55.6892 430.133L28.3011 434.241H2.28235L0 427.851L14.1505 419.634L61.1669 410.505L140.592 414.613L180.762 410.505L253.797 388.594L285.293 323.319L275.251 293.649L212.258 216.962L215.91 175.423L285.75 129.776L304.008 78.1953L315.42 84.1294L312.681 148.035L278.903 181.357L275.251 202.811L320.898 259.414L369.74 261.696L407.627 242.524L411.279 220.157L377.956 214.223L380.695 141.645L394.846 135.71L404.432 181.357L445.97 190.03V265.348L406.258 295.475L391.194 342.034Z" fill="#FF54B0"/>
<rect x="318.615" y="75" width="58.4281" height="78.5127" fill="#FFBE16"/>
<path d="M337.331 185.009L331.853 156.708H362.436L353.307 186.379L347.373 218.788L339.613 347.056H331.853L339.613 216.049L337.331 185.009Z" fill="#FFBE16"/>
<path d="M325.679 90.5199L335.048 146.209H323.18L325.679 90.5199Z" fill="white"/>
<path d="M369.067 95.9976L359.698 146.209H371.566L369.067 95.9976Z" fill="white"/>
<path d="M392.563 94.6282C387.542 92.498 377.044 88.1463 375.218 87.7811V95.9976L386.173 100.562L389.368 112.887L387.999 123.842H375.218V135.71L398.498 134.341L399.867 116.539L392.563 94.6282Z" fill="#FFBE16"/>
<path d="M190.866 42.7V84H177.178V53.497H164.611V84H150.923V42.7H190.866ZM268.969 42.7H282.657V64.176L296.876 42.7H309.974V84H296.286V62.583L282.126 84H268.969V42.7ZM419.852 62.347C422.172 63.173 423.942 64.412 425.162 66.064C426.381 67.6767 426.991 69.663 426.991 72.023C426.991 75.7203 425.516 78.6507 422.566 80.814C419.655 82.938 415.525 84 410.176 84H388.11V42.7H409.055C414.168 42.7 418.121 43.644 420.914 45.532C423.746 47.42 425.162 50.075 425.162 53.497C425.162 55.4637 424.69 57.1943 423.746 58.689C422.841 60.1837 421.543 61.403 419.852 62.347ZM401.798 58.571H407.698C409.979 58.571 411.12 57.568 411.12 55.562C411.12 53.4773 409.979 52.435 407.698 52.435H401.798V58.571ZM409.527 74.265C411.808 74.265 412.949 73.1637 412.949 70.961C412.949 68.837 411.808 67.775 409.527 67.775H401.798V74.265H409.527ZM191.633 168.7V210H177.709V194.778H164.847V210H150.923V168.7H164.847V183.332H177.709V168.7H191.633ZM290.78 210.944C286.335 210.944 282.343 210.02 278.803 208.171C275.263 206.322 272.49 203.766 270.484 200.501C268.478 197.197 267.475 193.48 267.475 189.35C267.475 185.22 268.478 181.523 270.484 178.258C272.49 174.954 275.263 172.378 278.803 170.529C282.343 168.68 286.335 167.756 290.78 167.756C295.224 167.756 299.217 168.68 302.757 170.529C306.297 172.378 309.07 174.954 311.076 178.258C313.082 181.523 314.085 185.22 314.085 189.35C314.085 193.48 313.082 197.197 311.076 200.501C309.07 203.766 306.297 206.322 302.757 208.171C299.217 210.02 295.224 210.944 290.78 210.944ZM290.78 199.675C292.51 199.675 294.064 199.262 295.441 198.436C296.857 197.571 297.978 196.371 298.804 194.837C299.63 193.264 300.043 191.435 300.043 189.35C300.043 187.265 299.63 185.456 298.804 183.922C297.978 182.349 296.857 181.149 295.441 180.323C294.064 179.458 292.51 179.025 290.78 179.025C289.049 179.025 287.476 179.458 286.06 180.323C284.683 181.149 283.582 182.349 282.756 183.922C281.93 185.456 281.517 187.265 281.517 189.35C281.517 191.435 281.93 193.264 282.756 194.837C283.582 196.371 284.683 197.571 286.06 198.436C287.476 199.262 289.049 199.675 290.78 199.675ZM389.896 168.7H403.584V190.176L417.803 168.7H430.901V210H417.213V188.583L403.053 210H389.896V168.7ZM410.369 166.34C405.806 166.34 402.522 165.494 400.516 163.803C398.51 162.112 397.507 159.575 397.507 156.192H406.77C406.77 157.529 407.025 158.493 407.537 159.083C408.087 159.673 409.031 159.968 410.369 159.968C411.706 159.968 412.65 159.673 413.201 159.083C413.791 158.493 414.086 157.529 414.086 156.192H423.349C423.349 159.575 422.326 162.112 420.281 163.803C418.235 165.494 414.931 166.34 410.369 166.34ZM188.742 294.7V336H175.054V322.784C172.3 323.61 169.803 324.023 167.561 324.023C161.503 324.023 156.882 322.587 153.696 319.716C150.549 316.845 148.976 312.656 148.976 307.149V294.7H162.664V305.615C162.664 308.132 163.214 310.001 164.316 311.22C165.417 312.4 167.089 312.99 169.331 312.99C171.651 312.99 173.559 312.675 175.054 312.046V294.7H188.742ZM301.175 325.498V336H266.837V294.7H300.408V305.202H280.525V310.04H297.989V320.07H280.525V325.498H301.175ZM412.787 305.497H400.692V336H387.004V305.497H374.909V294.7H412.787V305.497ZM182.665 440.347C184.985 441.173 186.755 442.412 187.975 444.064C189.194 445.677 189.804 447.663 189.804 450.023C189.804 453.72 188.329 456.651 185.379 458.814C182.468 460.938 178.338 462 172.989 462H150.923V420.7H171.868C176.981 420.7 180.934 421.644 183.727 423.532C186.559 425.42 187.975 428.075 187.975 431.497C187.975 433.464 187.503 435.194 186.559 436.689C185.654 438.184 184.356 439.403 182.665 440.347ZM164.611 436.571H170.511C172.792 436.571 173.933 435.568 173.933 433.562C173.933 431.477 172.792 430.435 170.511 430.435H164.611V436.571ZM172.34 452.265C174.621 452.265 175.762 451.164 175.762 448.961C175.762 446.837 174.621 445.775 172.34 445.775H164.611V452.265H172.34ZM299.907 451.498V462H265.569V420.7H299.14V431.202H279.257V436.04H296.721V446.07H279.257V451.498H299.907ZM396.239 420.7C400.054 420.7 403.378 421.329 406.21 422.588C409.042 423.847 411.225 425.656 412.759 428.016C414.293 430.376 415.06 433.129 415.06 436.276C415.06 439.423 414.293 442.176 412.759 444.536C411.225 446.896 409.042 448.705 406.21 449.964C403.378 451.223 400.054 451.852 396.239 451.852H390.28V462H376.356V420.7H396.239ZM395.354 441.114C397.242 441.114 398.658 440.701 399.602 439.875C400.546 439.01 401.018 437.81 401.018 436.276C401.018 434.742 400.546 433.562 399.602 432.736C398.658 431.871 397.242 431.438 395.354 431.438H390.28V441.114H395.354ZM521.528 431.497H503.769V462H490.081V420.7H521.528V431.497Z" fill="white"/>
</svg>
