<svg width="609" height="527" viewBox="0 0 609 527" fill="none" xmlns="http://www.w3.org/2000/svg">
  <path
    d="M95.6506 221.303L98.3167 226.636H55.6588L34.3299 237.3L25.8872 303.509L34.3299 337.279L57.8806 346.611L117.424 343.5L108.092 328.837V319.95L111.203 307.952H92.5401H53.4371L57.8806 258.185L63.2128 256.407L59.658 303.509H111.203L132.976 301.287H152.528L158.304 297.732V256.407H162.748L165.414 303.509L155.194 307.952L132.976 305.73L117.424 307.952L113.869 317.728V328.837L123.2 343.5H172.524L187.187 339.501L191.186 303.509L187.187 237.3L172.524 229.746L140.53 226.636V223.97L146.751 212.416L149.862 197.308L146.751 165.759L136.087 155.984H103.649L89.874 167.537L86.7635 196.42L92.0958 211.528L95.6506 221.303Z"
    fill="#FF54B0"/>
  <path
    d="M502.824 221.456L505.232 226.8H466.703L447.438 237.49L439.812 303.853L447.438 337.702L468.709 347.055L522.49 343.938L514.062 329.24V320.332L516.871 308.306H500.015H464.696L468.709 258.423L473.525 256.641L470.315 303.853H516.871L536.538 301.626H554.197L559.415 298.062V256.641H563.428L565.836 303.853L556.605 308.306L536.538 306.079L522.49 308.306L519.279 318.105V329.24L527.708 343.938H572.258L585.502 339.929L589.115 303.853L585.502 237.49L572.258 229.918L543.361 226.8V224.128L548.979 212.548L551.789 197.405L548.979 165.782L539.347 155.984H510.048L497.607 167.564L494.797 196.514L499.613 211.657L502.824 221.456Z"
    fill="#FF54B0"/>
  <path
    d="M341.283 221.456L338.316 226.8H385.79L409.527 237.49L418.923 303.853L409.527 337.702L383.318 347.055L317.052 343.938L327.437 329.24V320.332L323.975 308.306H344.745H388.263L383.318 258.423L377.383 256.641L381.34 303.853H323.975L299.744 301.626H277.985L271.556 298.062V256.641H266.611L263.643 303.853L275.017 308.306L299.744 306.079L317.052 308.306L321.008 318.105V329.24L310.623 343.938H255.731L239.412 339.929L234.961 303.853L239.412 237.49L255.731 229.918L291.337 226.8V224.128L284.413 212.548L280.952 197.405L284.413 165.782L296.282 155.984H332.382L347.712 167.564L351.174 196.514L345.24 211.657L341.283 221.456Z"
    fill="#FF54B0"/>
  <path
    d="M63.2127 360.386V353.276L122.756 348.388H154.749V353.276L176.078 366.607L186.743 379.049V406.154L178.744 460.365L210.293 489.693L196.963 504.801H178.744L143.641 478.584V464.809L149.417 412.819L143.641 400.378L114.313 383.048L85.8747 393.712L77.8763 406.154L90.3182 464.809L52.1039 512.799L24.1096 507.467L17 497.247L38.3289 469.697L27.2201 391.046L38.3289 373.716L63.2127 360.386Z"
    fill="#FF54B0"/>
  <path
    d="M472.782 360.83V353.721L526.713 348.833H555.691V353.721L575.01 367.051L584.669 379.493V406.599L577.424 460.81L606 490.137L593.926 505.245H577.424L545.629 479.028V465.253L550.861 413.264L545.629 400.822L519.066 383.492L493.308 394.157L486.063 406.599L497.333 465.253L462.72 513.243L437.364 507.911L430.925 497.691L450.243 470.141L440.182 391.491L450.243 374.161L472.782 360.83Z"
    fill="#FF54B0"/>
  <path
    d="M377.281 360.83V353.721L311.03 348.833H275.433V353.721L251.702 367.051L239.836 379.493V406.599L248.735 460.81L213.632 490.137L228.465 505.245H248.735L287.793 479.028V465.253L281.366 413.264L287.793 400.822L320.424 383.492L352.066 394.157L360.965 406.599L347.122 465.253L389.641 513.243L420.789 507.911L428.699 497.691L404.968 470.141L417.328 391.491L404.968 374.161L377.281 360.83Z"
    fill="#FF54B0"/>
  <rect x="95" y="87" width="48.5948" height="64.54" fill="#FFBE16"/>
  <rect x="99" y="92" width="41" height="9" fill="white"/>
  <path
    d="M153.466 105.982L142.835 102.945L139.798 111.297L147.771 112.816L153.466 118.511L150.808 128.002L140.937 129.141L142.835 138.632L158.021 134.076L162.957 128.381L161.059 113.575L153.466 105.982Z"
    fill="#FFBE16"/>
  <rect x="295.248" y="87" width="48.5948" height="64.54" fill="#FFBE16"/>
  <rect x="298.665" y="91.5558" width="41.0019" height="20.5009" fill="white"/>
  <path
    d="M353.714 105.982L343.084 102.945L340.046 111.297L348.019 112.816L353.714 118.511L351.056 128.002L341.185 129.141L343.084 138.632L358.27 134.076L363.205 128.381L361.307 113.575L353.714 105.982Z"
    fill="#FFBE16"/>
  <rect x="497" y="87" width="48.5948" height="64.54" fill="#FFBE16"/>
  <rect x="500.796" y="91.5558" width="41.0019" height="34.1682" fill="white"/>
  <path
    d="M555.466 105.982L544.835 102.945L541.798 111.297L549.771 112.816L555.466 118.511L552.808 128.002L542.937 129.141L544.835 138.632L560.021 134.076L564.957 128.381L563.059 113.575L555.466 105.982Z"
    fill="#FFBE16"/>
  <rect x="2.5" y="340.5" width="604" height="28" fill="#FF54B0" stroke="white" stroke-width="5"/>
  <rect x="97.5" y="368.5" width="26" height="156" fill="#FF54B0" stroke="white" stroke-width="5"/>
  <rect x="504.5" y="368.5" width="26" height="156" fill="#FF54B0" stroke="white" stroke-width="5"/>
  <path
    d="M215.601 42.7V84H201.913V53.497H189.346V84H175.658V42.7H215.601ZM293.704 42.7H307.392V64.176L321.611 42.7H334.709V84H321.021V62.583L306.861 84H293.704V42.7ZM444.587 62.347C446.908 63.173 448.678 64.412 449.897 66.064C451.116 67.6767 451.726 69.663 451.726 72.023C451.726 75.7203 450.251 78.6507 447.301 80.814C444.39 82.938 440.26 84 434.911 84H412.845V42.7H433.79C438.903 42.7 442.856 43.644 445.649 45.532C448.481 47.42 449.897 50.075 449.897 53.497C449.897 55.4637 449.425 57.1943 448.481 58.689C447.576 60.1837 446.278 61.403 444.587 62.347ZM426.533 58.571H432.433C434.714 58.571 435.855 57.568 435.855 55.562C435.855 53.4773 434.714 52.435 432.433 52.435H426.533V58.571ZM434.262 74.265C436.543 74.265 437.684 73.1637 437.684 70.961C437.684 68.837 436.543 67.775 434.262 67.775H426.533V74.265H434.262ZM216.368 168.7V210H202.444V194.778H189.582V210H175.658V168.7H189.582V183.332H202.444V168.7H216.368ZM315.515 210.944C311.07 210.944 307.078 210.02 303.538 208.171C299.998 206.322 297.225 203.766 295.219 200.501C293.213 197.197 292.21 193.48 292.21 189.35C292.21 185.22 293.213 181.523 295.219 178.258C297.225 174.954 299.998 172.378 303.538 170.529C307.078 168.68 311.07 167.756 315.515 167.756C319.959 167.756 323.952 168.68 327.492 170.529C331.032 172.378 333.805 174.954 335.811 178.258C337.817 181.523 338.82 185.22 338.82 189.35C338.82 193.48 337.817 197.197 335.811 200.501C333.805 203.766 331.032 206.322 327.492 208.171C323.952 210.02 319.959 210.944 315.515 210.944ZM315.515 199.675C317.245 199.675 318.799 199.262 320.176 198.436C321.592 197.571 322.713 196.371 323.539 194.837C324.365 193.264 324.778 191.435 324.778 189.35C324.778 187.265 324.365 185.456 323.539 183.922C322.713 182.349 321.592 181.149 320.176 180.323C318.799 179.458 317.245 179.025 315.515 179.025C313.784 179.025 312.211 179.458 310.795 180.323C309.418 181.149 308.317 182.349 307.491 183.922C306.665 185.456 306.252 187.265 306.252 189.35C306.252 191.435 306.665 193.264 307.491 194.837C308.317 196.371 309.418 197.571 310.795 198.436C312.211 199.262 313.784 199.675 315.515 199.675ZM414.631 168.7H428.319V190.176L442.538 168.7H455.636V210H441.948V188.583L427.788 210H414.631V168.7ZM435.104 166.34C430.541 166.34 427.257 165.494 425.251 163.803C423.245 162.112 422.242 159.575 422.242 156.192H431.505C431.505 157.529 431.761 158.493 432.272 159.083C432.823 159.673 433.767 159.968 435.104 159.968C436.441 159.968 437.385 159.673 437.936 159.083C438.526 158.493 438.821 157.529 438.821 156.192H448.084C448.084 159.575 447.061 162.112 445.016 163.803C442.971 165.494 439.667 166.34 435.104 166.34ZM213.477 294.7V336H199.789V322.784C197.036 323.61 194.538 324.023 192.296 324.023C186.239 324.023 181.617 322.587 178.431 319.716C175.284 316.845 173.711 312.656 173.711 307.149V294.7H187.399V305.615C187.399 308.132 187.95 310.001 189.051 311.22C190.152 312.4 191.824 312.99 194.066 312.99C196.387 312.99 198.294 312.675 199.789 312.046V294.7H213.477ZM325.91 325.498V336H291.572V294.7H325.143V305.202H305.26V310.04H322.724V320.07H305.26V325.498H325.91ZM437.523 305.497H425.428V336H411.74V305.497H399.645V294.7H437.523V305.497ZM207.4 440.347C209.721 441.173 211.491 442.412 212.71 444.064C213.929 445.677 214.539 447.663 214.539 450.023C214.539 453.72 213.064 456.651 210.114 458.814C207.203 460.938 203.073 462 197.724 462H175.658V420.7H196.603C201.716 420.7 205.669 421.644 208.462 423.532C211.294 425.42 212.71 428.075 212.71 431.497C212.71 433.464 212.238 435.194 211.294 436.689C210.389 438.184 209.091 439.403 207.4 440.347ZM189.346 436.571H195.246C197.527 436.571 198.668 435.568 198.668 433.562C198.668 431.477 197.527 430.435 195.246 430.435H189.346V436.571ZM197.075 452.265C199.356 452.265 200.497 451.164 200.497 448.961C200.497 446.837 199.356 445.775 197.075 445.775H189.346V452.265H197.075ZM324.643 451.498V462H290.305V420.7H323.876V431.202H303.993V436.04H321.457V446.07H303.993V451.498H324.643ZM420.974 420.7C424.789 420.7 428.113 421.329 430.945 422.588C433.777 423.847 435.96 425.656 437.494 428.016C439.028 430.376 439.795 433.129 439.795 436.276C439.795 439.423 439.028 442.176 437.494 444.536C435.96 446.896 433.777 448.705 430.945 449.964C428.113 451.223 424.789 451.852 420.974 451.852H415.015V462H401.091V420.7H420.974ZM420.089 441.114C421.977 441.114 423.393 440.701 424.337 439.875C425.281 439.01 425.753 437.81 425.753 436.276C425.753 434.742 425.281 433.562 424.337 432.736C423.393 431.871 421.977 431.438 420.089 431.438H415.015V441.114H420.089ZM546.263 431.497H528.504V462H514.816V420.7H546.263V431.497Z"
    fill="white"/>
</svg>
